<?xml version="1.0" encoding="utf-8"?>
<!-- Generator: Adobe Illustrator 19.0.0, SVG Export Plug-In . SVG Version: 6.00 Build 0)  -->
<svg version="1.1" id="图层_1" xmlns="http://www.w3.org/2000/svg" xmlns:xlink="http://www.w3.org/1999/xlink" x="0px" y="0px"
	 viewBox="0 0 20 20" style="enable-background:new 0 0 20 20;" xml:space="preserve">
<style type="text/css">
	.st0{fill:#3dca99;}
</style>
<g id="XMLID_2_">
	<path id="XMLID_3_" class="st0" d="M17,12.4c-1,3.2-4,5.5-7.6,5.5c-4.4,0-7.9-3.6-7.9-7.9c0-4.4,3.6-7.9,7.9-7.9
		c2.6,0,4.9,1.2,6.3,3.2h-3.2c-0.3,0-0.5,0.2-0.5,0.5c0,0.3,0.2,0.5,0.5,0.5h4.2c0.3,0,0.5-0.2,0.5-0.5V1.5c0-0.3-0.2-0.5-0.5-0.5
		c-0.3,0-0.5,0.2-0.5,0.5v2.7C14.7,2.3,12.2,1,9.5,1c-5,0-9,4-9,9s4,9,9,9c4.1,0,7.5-2.7,8.6-6.5C17.8,12.2,17.4,12.1,17,12.4
		L17,12.4z M17,12.4"/>
</g>
</svg>
